PathFileType	4	(X/Y/Z)	/Users/itak/Documents/Research/Walk-IL/dataset/trc/00408_00012.trc
DataRate	CameraRate	NumFrames	NumMarkers	Units	OrigDataRate	OrigDataStartFrame	OrigNumFrames
100.000000	100.000000	4	55	mm	100.000000	168	673
Frame#	Time	RPSI			LPSI			L3			STRN			T10			C7			CLAV			RBAK			LBAK			LSHO			LUPA			LAEL			LAOL			LWTS			LWPS			LFRA			LHPS			LHTS			RSHO			RUPA			RAEL			RAOL			RWTS			RWPS			RFRA			RIFD			RHPS			RBHD			LFHD			RFHD			LBHD			LHIP			RHIP			RASI			LASI			LKNE			LTHI			LANK			LTIP			LTOE			LMT1			LMT5			LHEE			RKNE			RTHI			RANK			RTIP			RTOE			RMT1			RMT5			RHEE			RHTS			LIFD			*53			*54			
		X1	Y1	Z1	X2	Y2	Z2	X3	Y3	Z3	X4	Y4	Z4	X5	Y5	Z5	X6	Y6	Z6	X7	Y7	Z7	X8	Y8	Z8	X9	Y9	Z9	X10	Y10	Z10	X11	Y11	Z11	X12	Y12	Z12	X13	Y13	Z13	X14	Y14	Z14	X15	Y15	Z15	X16	Y16	Z16	X17	Y17	Z17	X18	Y18	Z18	X19	Y19	Z19	X20	Y20	Z20	X21	Y21	Z21	X22	Y22	Z22	X23	Y23	Z23	X24	Y24	Z24	X25	Y25	Z25	X26	Y26	Z26	X27	Y27	Z27	X28	Y28	Z28	X29	Y29	Z29	X30	Y30	Z30	X31	Y31	Z31	X32	Y32	Z32	X33	Y33	Z33	X34	Y34	Z34	X35	Y35	Z35	X36	Y36	Z36	X37	Y37	Z37	X38	Y38	Z38	X39	Y39	Z39	X40	Y40	Z40	X41	Y41	Z41	X42	Y42	Z42	X43	Y43	Z43	X44	Y44	Z44	X45	Y45	Z45	X46	Y46	Z46	X47	Y47	Z47	X48	Y48	Z48	X49	Y49	Z49	X50	Y50	Z50	X51	Y51	Z51	X52	Y52	Z52	X53	Y53	Z53	X54	Y54	Z54	X55	Y55	Z55	

169	1.68	-537.3270263671875	939.619140625	835.9090576171875	-641.4189453125	934.5804443359375	919.6473388671875	-577.5380859375	1013.534851074219	871.7763061523438	-710.7481689453125	1170.715698242188	672.8151245117188	-562.8319091796875	1118.717041015625	881.9085083007812	-583.1639404296875	1367.103759765625	844.8795166015625	-674.0595092773438	1289.126098632812	714.7213134765625	-506.7941284179688	1218.833374023438	842.0999755859375	-657.24853515625	1333.582763671875	917.6467895507812	-749.5091552734375	1350.740966796875	878.6172485351562	-781.3128662109375	1246.1044921875	958.5606079101562	-794.8040161132812	1054.446533203125	1008.038452148438	-710.262451171875	1038.651611328125	1008.878051757812	-790.1649169921875	818.1516723632812	969.3936767578125	-819.3488159179688	830.0489501953125	1047.200561523438	-804.6362915039062	952.840087890625	1029.293334960938	-807.6455688476562	745.1183471679688	1061.654541015625	-801.7279052734375	723.6871948242188	1001.811096191406	-490.2018127441406	1344.195678710938	706.7496948242188	-433.0708923339844	1278.4638671875	684.7840576171875	-405.3578186035156	1017.298095703125	641.11083984375	-465.6490783691406	999.776611328125	713.70361328125	-580.7667236328125	924.6383056640625	497.939453125	-520.0928344726562	895.051025390625	468.4705810546875	-426.9181518554688	976.0562744140625	591.3705444335938	-651.9221801757812	797.0841064453125	402.8894348144531	-560.3040161132812	831.9766235351562	420.1159973144531	-520.9374389648438	1542.053833007812	779.6784057617188	-705.9497680664062	1571.792846679688	712.7468872070312	-592.5418090820312	1562.312744140625	667.9486083984375	-663.50927734375	1550.729370117188	854.1002807617188	-784.2656860351562	939.2708129882812	912.536376953125	-494.4783935546875	907.4734497070312	702.635009765625	-614.1409912109375	915.2372436523438	622.2315063476562	-812.908203125	941.2315063476562	793.1110229492188	-906.5767211914062	490.4998474121094	716.6239013671875	-876.27783203125	612.4430541992188	778.3499755859375	-931.2958374023438	40.16507720947266	718.488037109375	-931.8307495117188	254.7570343017578	718.9479370117188	-961.055908203125	69.19845581054688	504.113525390625	-899.33837890625	54.42972564697266	558.6719970703125	-993.7867431640625	46.43506240844727	607.76416015625	-864.3025512695312	35.01908874511719	727.5874633789062	-536.5591430664062	430.3298950195312	791.8663330078125	-548.0447998046875	673.4722900390625	683.3267822265625	-409.3766784667969	84.23406982421875	1018.112609863281	-524.289794921875	310.9930725097656	848.4208374023438	-590.057861328125	40.69857406616211	1025.2783203125	-536.3590087890625	66.24639129638672	1066.327880859375	-480.6704711914062	47.99504089355469	987.9973754882812	-371.9116821289062	118.0614471435547	1094.299194335938	-623.5560913085938	862.2567749023438	420.6756896972656	-765.4993896484375	655.1064453125	1039.667724609375	nan	nan	nan	nan	nan	nan	
170	1.69	-546.4671630859375	940.142822265625	827.8733520507812	-651.5053100585938	935.8536376953125	910.586669921875	-587.9065551757812	1013.945129394531	862.866455078125	-718.7324829101562	1171.576049804688	663.5895385742188	-572.9177856445312	1119.09619140625	874.0448608398438	-592.47412109375	1367.609008789062	837.4576416015625	-682.2434692382812	1289.956787109375	706.0128173828125	-516.4354248046875	1219.15234375	834.8997192382812	-667.7401123046875	1334.087280273438	909.2371215820312	-759.312744140625	1351.354736328125	869.2305908203125	-792.5005493164062	1246.375	948.25244140625	-807.1689453125	1054.369506835938	996.3434448242188	-722.7116088867188	1038.3505859375	998.3192749023438	-803.1383666992188	818.5230712890625	955.1998901367188	-833.5712280273438	829.70849609375	1032.383911132812	-817.7266235351562	952.4915771484375	1016.514343261719	-823.1622314453125	744.5382080078125	1046.048217773438	-816.4065551757812	723.8541259765625	985.9871826171875	-498.1926574707031	1344.80615234375	700.0289916992188	-440.9088439941406	1279.077880859375	678.668701171875	-412.0505676269531	1017.921264648438	636.7599487304688	-473.0465087890625	1000.732849121094	708.81640625	-583.169677734375	916.619873046875	493.5838317871094	-521.1231079101562	888.4735107421875	465.6714172363281	-432.1417236328125	975.1757202148438	587.5049438476562	-648.54443359375	783.9490356445312	401.5032348632812	-558.50634765625	822.7021484375	418.6591491699219	-528.8054809570312	1542.359252929688	773.2647705078125	-712.7801513671875	1572.971435546875	704.0795288085938	-598.87451171875	1562.93115234375	660.6046142578125	-672.197998046875	1551.751220703125	845.9010009765625	-794.337890625	940.615966796875	901.81103515625	-502.2920227050781	907.6661987304688	695.22607421875	-621.3301391601562	915.8356323242188	613.8313598632812	-821.732666015625	942.2408447265625	782.1251831054688	-913.509033203125	491.1617126464844	704.475341796875	-884.4031372070312	613.2257690429688	766.7940063476562	-932.0451049804688	40.70393753051758	717.9037475585938	-936.7496948242188	255.1133270263672	711.2503051757812	-961.524169921875	63.41801071166992	501.1523742675781	-899.7738037109375	51.59725570678711	557.2440795898438	-994.036376953125	44.24363327026367	606.4156494140625	-865.2376098632812	36.25130844116211	727.2911987304688	-545.5272216796875	429.9054260253906	780.9144287109375	-556.1381225585938	673.4614868164062	674.8328247070312	-412.1155700683594	89.00522613525391	1014.3017578125	-530.6138916015625	311.5027770996094	838.5661010742188	-589.9802856445312	40.73366546630859	1024.742919921875	-538.2828979492188	68.69023895263672	1063.15478515625	-481.8177185058594	47.44621658325195	986.5833740234375	-377.0323791503906	127.6661987304688	1088.860717773438	-622.8221435546875	850.5291748046875	417.7469787597656	-781.9208984375	654.2208862304688	1023.474914550781	nan	nan	nan	nan	nan	nan	
171	1.7	-555.3308715820312	940.7131958007812	819.8560180664062	-661.3278198242188	937.3951416015625	901.4697265625	-598.0444946289062	1014.657287597656	853.875732421875	-726.3922119140625	1172.666137695312	654.2210693359375	-582.9525146484375	1119.747314453125	866.115234375	-601.77294921875	1368.342895507812	830.00244140625	-690.212158203125	1291.047241210938	697.20703125	-525.990966796875	1219.761840820312	827.73681640625	-678.30712890625	1334.816650390625	900.677978515625	-769.083251953125	1352.206420898438	859.6375732421875	-803.6912841796875	1246.93017578125	937.7372436523438	-819.581298828125	1054.608764648438	984.4195556640625	-735.1851196289062	1038.332397460938	987.549072265625	-816.4458618164062	819.3020629882812	940.623779296875	-847.8580322265625	829.636962890625	1017.2724609375	-830.8903198242188	952.4494018554688	1003.472045898438	-838.7958984375	744.22998046875	1029.946533203125	-831.4503784179688	724.41259765625	969.6153564453125	-506.0450744628906	1345.715087890625	693.399169921875	-448.6048889160156	1279.982177734375	672.6834716796875	-418.8620910644531	1018.857971191406	632.5104370117188	-480.6752014160156	1002.059936523438	703.92822265625	-585.1641235351562	908.5680541992188	489.5070190429688	-521.6602783203125	881.895263671875	463.3778381347656	-437.3480834960938	974.57373046875	583.8146362304688	-644.317138671875	770.8631591796875	400.7815856933594	-556.041015625	813.4768676757812	417.8686828613281	-536.657470703125	1542.927856445312	766.8340454101562	-719.552001953125	1574.275634765625	695.3150634765625	-605.12890625	1563.707641601562	653.2308349609375	-680.9048461914062	1553.015258789062	837.6171875	-804.09130859375	942.39013671875	890.8864135742188	-509.7702941894531	907.853271484375	687.8988037109375	-628.11572265625	916.6688232421875	605.5698852539062	-830.2994384765625	943.5501098632812	771.0131225585938	-920.3838500976562	491.7143249511719	693.1451416015625	-892.6458129882812	614.381591796875	755.5846557617188	-932.7386474609375	41.11908721923828	717.57373046875	-941.5164184570312	255.4277648925781	704.3982543945312	-962.0247802734375	58.76030349731445	498.9145812988281	-900.263427734375	49.61922073364258	556.2650146484375	-994.3500366210938	42.67738723754883	605.5487060546875	-866.11181640625	37.2197151184082	727.1941528320312	-554.9885864257812	429.3369140625	768.807861328125	-564.3367309570312	673.4920654296875	665.994384765625	-415.4051818847656	94.14192962646484	1009.681762695312	-537.489013671875	312.0491333007812	827.5927734375	-589.9906005859375	40.68921279907227	1023.816833496094	-540.6844482421875	71.36659240722656	1059.396484375	-483.1851806640625	46.94326019287109	984.9481201171875	-383.0325317382812	137.8412780761719	1082.244140625	-621.336669921875	838.7642211914062	415.3178405761719	-798.6341552734375	653.5628051757812	1006.356384277344	nan	nan	nan	nan	nan	nan	
172	1.71	-563.9013671875	941.2910766601562	811.9562377929688	-670.8892822265625	939.1346435546875	892.3651733398438	-607.8736572265625	1015.6318359375	844.9080810546875	-733.6712646484375	1173.928100585938	644.7416381835938	-592.9097900390625	1120.617309570312	858.0731201171875	-611.0294189453125	1369.27197265625	822.50537109375	-697.9244995117188	1292.3388671875	688.3140869140625	-535.4222412109375	1220.623291015625	820.6321411132812	-688.8765869140625	1335.72607421875	891.97216796875	-778.7897338867188	1353.248046875	849.827392578125	-814.857421875	1247.726440429688	926.9883422851562	-832.0205078125	1055.127075195312	972.2778930664062	-747.6565551757812	1038.554565429688	976.5764770507812	-830.0870361328125	820.461669921875	925.6697387695312	-862.2054443359375	829.8212280273438	1001.914123535156	-844.11474609375	952.6832275390625	990.1677856445312	-854.5162963867188	744.1939697265625	1013.397338867188	-846.8178100585938	725.3362426757812	952.745361328125	-513.7296142578125	1346.884033203125	686.881103515625	-456.1013488769531	1281.150146484375	666.8432006835938	-425.7916564941406	1020.056335449219	628.4021606445312	-488.535400390625	1003.715942382812	699.0482177734375	-586.7274169921875	900.568603515625	485.7309265136719	-521.708740234375	875.3868408203125	461.6331481933594	-442.5223083496094	974.2037353515625	580.344482421875	-639.2548217773438	757.99560546875	400.7614440917969	-552.9197998046875	804.4176025390625	417.7950439453125	-544.4893798828125	1543.72314453125	760.3997802734375	-726.255615234375	1575.669677734375	686.4510498046875	-611.29443359375	1564.627197265625	645.8490600585938	-689.6301879882812	1554.454711914062	829.2560424804688	-813.5410766601562	944.5285034179688	879.867919921875	-516.8875732421875	908.00048828125	680.7442626953125	-634.4675903320312	917.6472778320312	597.4903564453125	-838.5909423828125	945.0946655273438	759.8570556640625	-927.0873413085938	492.0547180175781	682.82763671875	-900.9055786132812	615.7806396484375	744.8717651367188	-933.3468627929688	41.39912796020508	717.4091186523438	-945.9395751953125	255.6069183349609	698.4996337890625	-962.4550170898438	55.14028549194336	497.3031311035156	-900.7127685546875	48.32915115356445	555.6248168945312	-994.6668090820312	41.62837600708008	605.0380249023438	-866.8806762695312	37.92849731445312	727.2405395507812	-564.8864135742188	428.6289672851562	755.6044311523438	-572.572509765625	673.53369140625	656.8451538085938	-419.3152160644531	99.65547180175781	1004.119873046875	-544.9501342773438	312.6290893554688	815.5377807617188	-590.2662353515625	40.55015182495117	1022.28271484375	-543.6163940429688	74.32745361328125	1054.947387695312	-484.850341796875	46.70327758789062	982.9086303710938	-389.9125366210938	148.4221649169922	1074.366821289062	-619.07421875	827.1008911132812	413.4204711914062	-815.5912475585938	653.1915893554688	988.447021484375	nan	nan	nan	nan	nan	nan	
